# xmcd CD database file
#
# Track frame offsets:
#	150
#	49633
#	78821
#	111613
#	147573
#	181599
#	226431
#
# Disc length: 3837 seconds
#
# Revision: 0
# Processed by: cddbd v1.5.2PL0 Copyright (c) Steve Scherf et al.
# Submitted via: CDex 1.51
#
DISCID=570efb07
DTITLE=E.J. Strickland Project - Live At 92Y Tribeca 2012 
DYEAR=2012
DGENRE=Jazz
TTITLE0=E.J. Strickland Project - Never In Your Sun
TTITLE1=E.J. Strickland Project - Overjoyed
TTITLE2=E.J. Strickland Project - As
TTITLE3=E.J. Strickland Project - Make Sure You're Sure
TTITLE4=E.J. Strickland Project - Golden Lady
TTITLE5=E.J. Strickland Project - Ribbon In The Sky
TTITLE6=E.J. Strickland Project - Fun Day
EXTD=YEAR: 2012
EXTT0=
EXTT1=
EXTT2=
EXTT3=
EXTT4=
EXTT5=
EXTT6=
PLAYORDER=
